<?xml version="1.0" standalone="no"?><!-- Generator: Gravit.io --><svg xmlns="http://www.w3.org/2000/svg" xmlns:xlink="http://www.w3.org/1999/xlink" style="isolation:isolate" viewBox="0 0 61 40.7" width="61" height="40.7"><defs><clipPath id="_clipPath_tHfNZ6xsCccT0Df270dkmTKPFvF6Wncr"><rect width="61" height="40.7"/></clipPath></defs><g clip-path="url(#_clipPath_tHfNZ6xsCccT0Df270dkmTKPFvF6Wncr)"><path d=" M 44.405 40.7 L 44.405 0 L 47.095 0 L 47.095 0 Q 58.092 0 60.243 7.471 L 60.243 7.471 L 60.243 7.471 Q 60.93 9.891 60.93 13.059 L 60.93 13.059 L 60.93 40.7 L 44.405 40.7 Z  M 22.233 40.7 L 22.233 0 L 38.847 0 L 38.847 40.7 L 22.233 40.7 Z  M 0 40.7 L 0 0 L 16.615 0 L 16.615 40.7 L 0 40.7 Z " fill-rule="evenodd" fill="rgb(232,228,238)"/><clipPath id="_clipPath_cwkSwZhAk8jSFnOJWu0gX8vbY96E1Lb9"><path d=" M 44.405 40.7 L 44.405 0 L 47.095 0 L 47.095 0 Q 58.092 0 60.243 7.471 L 60.243 7.471 L 60.243 7.471 Q 60.93 9.891 60.93 13.059 L 60.93 13.059 L 60.93 40.7 L 44.405 40.7 Z  M 22.233 40.7 L 22.233 0 L 38.847 0 L 38.847 40.7 L 22.233 40.7 Z  M 0 40.7 L 0 0 L 16.615 0 L 16.615 40.7 L 0 40.7 Z " fill-rule="evenodd" fill="rgb(232,228,238)"/></clipPath><g clip-path="url(#_clipPath_cwkSwZhAk8jSFnOJWu0gX8vbY96E1Lb9)"><linearGradient id="_lgradient_1" x1="50%" y1="0%" x2="50.000000000000014%" y2="100%"><stop offset="1.7391304347826086%" stop-opacity="1" style="stop-color:rgb(97,215,255)"/><stop offset="97.3913043478261%" stop-opacity="1" style="stop-color:rgb(145,90,255)"/></linearGradient><path d=" M -0.108 19.032 Q 9.741 14.569 15.651 13.983 C 27.605 12.797 34.483 25.114 46.404 24.387 Q 51.774 24.059 61.092 20.868 L 60.939 40.757 L -0.108 40.757 L -0.108 19.032 Z " fill="url(#_lgradient_1)"/></g></g></svg>